<?xml version="1.0" encoding="utf-8"?>
<!-- Generator: Adobe Illustrator 23.0.0, SVG Export Plug-In . SVG Version: 6.00 Build 0)  -->
<svg version="1.1" id="Layer_1" xmlns="http://www.w3.org/2000/svg" xmlns:xlink="http://www.w3.org/1999/xlink" x="0px" y="0px"
	 viewBox="0 0 1920 1080" style="enable-background:new 0 0 1920 1080;" xml:space="preserve">
<style type="text/css">
	.st0{fill:#FFFFFF;}
</style>
<g>
	<g>
		<path class="st0" d="M861.63,631.46c4.75-58.63,41.2-87.16,113.04-87.16c38.56,0,68.14,8.98,88.22,26.41
			c18.49,16.38,25.36,36.98,25.36,74.48v117.27c0,27.47,1.06,31.17,9.51,43.84h-76.59c-3.17-8.98-3.17-10.56-5.81-20.07
			c-24.83,20.6-42.79,26.94-72.9,26.94c-56.52,0-94.03-31.69-94.03-79.76s30.11-72.9,101.42-84.52l40.67-6.87
			c16.9-2.64,22.71-6.87,22.71-17.43c0-14.26-14.79-23.24-39.09-23.24c-27.47,0-42.26,9.51-45.43,30.11H861.63z M1015.35,684.81
			c-7.92,3.17-14.79,5.28-27.47,7.92l-26.94,5.81c-26.94,6.34-38.56,15.32-38.56,30.64c0,16.9,14.26,26.94,38.03,26.94
			c24.83,0,42.79-10.56,54.94-32.22V684.81z"/>
		<path class="st0" d="M1228.23,551.17l-2.11,45.43c14.79-41.2,33.81-52.82,88.22-52.3v70.78c-8.98-1.06-12.68-1.06-19.02-1.06
			c-25.88,0-47.01,11.62-55.46,30.64c-7.4,16.9-10.04,40.67-10.04,89.8v71.84h-75.01V551.17H1228.23z"/>
		<path class="st0" d="M1349.2,631.46c4.75-58.63,41.2-87.16,113.04-87.16c38.56,0,68.14,8.98,88.22,26.41
			c18.49,16.38,25.36,36.98,25.36,74.48v117.27c0,27.47,1.06,31.17,9.51,43.84h-76.59c-3.17-8.98-3.17-10.56-5.81-20.07
			c-24.83,20.6-42.79,26.94-72.9,26.94c-56.52,0-94.03-31.69-94.03-79.76s30.11-72.9,101.42-84.52l40.67-6.87
			c16.9-2.64,22.71-6.87,22.71-17.43c0-14.26-14.79-23.24-39.09-23.24c-27.47,0-42.26,9.51-45.43,30.11H1349.2z M1502.91,684.81
			c-7.92,3.17-14.79,5.28-27.47,7.92l-26.94,5.81c-26.94,6.34-38.56,15.32-38.56,30.64c0,16.9,14.26,26.94,38.03,26.94
			c24.83,0,42.79-10.56,54.94-32.22V684.81z"/>
		<path class="st0" d="M1783.93,627.76c-3.17-19.02-18.49-29.05-43.32-29.05c-21.66,0-35.92,8.45-35.92,21.13
			c0,9.51,7.4,14.26,31.17,19.54l47.01,10.04c31.17,6.34,47.01,13.21,58.11,24.83c12.15,11.62,19.02,30.64,19.02,51.24
			c0,53.88-43.84,87.69-114.63,87.69c-70.78,0-114.63-33.28-118.85-89.8h70.26c4.23,24.3,20.07,35.39,50.18,35.39
			c23.77,0,39.09-9.51,39.09-24.83c0-12.15-8.45-18.49-28.52-23.24l-46.48-10.56c-55.99-12.15-77.65-32.75-77.65-73.42
			c0-51.24,40.67-82.4,108.82-82.4c65.5,0,105.12,29.58,111.99,83.46H1783.93z"/>
	</g>
	<path class="st0" d="M920.92,390.51c-3.76-1.19-14.18,4.16-21.02,6.85c-23.62,9.32-47.12,18.93-70.68,28.41
		c-8.57,3.45-17.52,6.14-25.69,10.36c-32.71,16.89-65.37,33.66-100.9,44.29c-12.24,3.66-25.09,7.59-34.13,17.97
		c-6.94,7.97-16.02,12.58-25.7,16.08c-10.46,3.78-19.98,8.85-27.24,17.58c-1.11,1.34-2.98,2.04-6.18,4.13
		c-4.3-12.01-8.46-22.99-11.98-34.18c-0.5-1.58,1.63-4.91,3.43-6.16c35.54-24.63,71.62-48.42,110.84-66.96
		c17.84-8.43,35.76-16.7,50.83-29.8c1.52-1.32,2.92-4.17,3.21-5.51c0.29-1.34-4.36-1.65-6.24-1.21c-7.37,1.72-14.98,3.14-21.85,6.16
		c-17.98,7.91-35.79,16.27-53.36,25.06c-22.93,11.48-45.59,23.48-68.3,35.4c-5.83,3.06-11.41,6.6-17.04,10.01
		c-3.08,1.86-6.04,3.92-9.6,6.25c-1.24-8.93-1.91-16.76-3.53-24.38c-1.16-5.47,0.67-8.18,5.35-10.66
		c19.53-10.32,39.78-19.63,58.13-31.78c34.6-22.91,71.07-42.21,108.13-60.6c6.93-3.44,18.15-9.16,20.32-11.69
		c2.16-2.53,0.57-7.4-2.81-7.84c-3.38-0.44-14.45,2.4-20.58,4.83c-19.56,7.75-39.3,15.18-58.36,24.03
		c-13.75,6.39-26.13,15.72-39.85,22.2c-24.94,11.78-50.1,22.99-72.18,39.9c-0.96,0.74-2.55,0.66-4.95,1.22
		c-3.04-19.19-5.42-37.96-9.1-56.48c-3.62-18.25-6.08-36.94-17.47-52.88c-3.05-4.26-3.88-10.5-4.53-15.98
		c-1.45-12.22-5.16-23.36-6.56-35.59c-1.02-8.93,0.83-12.26,1.54-16.63c2.72-16.81,4.33-14,8.61-30.53
		c1.9-7.34,7.11-14.35,1.88-23.2c-5.84,11.52-10.49,20.4-17.1,35.12c-1.12-7.59-1.35-43.9-1.61-50.62c-0.36-9.35-2.29-19.77,1-27.89
		c7.44-18.38,17.97-35.49,26.62-53.43c4.41-9.15,7.61-18.89,10.96-28.51c0.67-1.91,2.69-9.14-1.02-8.19
		c-3.71,0.95-44.88,78.31-68.46,117.77c-0.38-0.15-9.64,21.78-10.49,24.21c-11.18,31.79-23.12,58.31-33.51,90.35
		c-4.94,15.24-6.16,31.65-10.28,47.21c-6.87,25.9-15.06,51.45-22.06,77.32c-6.24,23.05-11.72,46.31-17.36,69.52
		c-4.42,18.21-8.51,36.5-12.89,54.73c-1.36,5.65-13.04,16.55-20.1,19.11c-0.2-0.61-0.67-1.27-0.55-1.8
		c6.44-29.41,13.03-58.8,19.4-88.22c4.54-21,11.96-40.96,19.26-61.14c10.83-29.94,18.32-61.07,28.03-91.44
		c7.1-22.19,15.38-44,23.35-65.9c6.72-18.47,13.73-36.84,20.68-55.23c1.22-3.23,11.05-26.39,12.8-30.36
		c13.27-30.11,29.95-58.92,34.7-92.2c0.59-4.11,1.19-9.47,0.37-11.46c-0.83-1.99-0.79-2.98-2.97-2.48
		c-2.19,0.49-8.77,4.93-10.66,8.67c-6.39,12.61-11.55,25.84-17.32,38.77c-11.17,25-23.14,49.68-33.42,75.04
		c-7.9,19.49-13.29,39.98-20.59,59.73c-7.28,19.69-15.53,39.02-23.39,58.5c-1.41,3.49-3.64,6.79-4.35,10.4
		c-2.62,13.43-4.55,27-7.14,40.44c-2.32,12.1-6.03,19.33-10.66,31.43c-2.73,7.12-3.77,10.63-4.22,14.3
		c-1.12,9.06-1.9,14.33-5.92,22.44c-7.58,15.28-14.61,30.84-21.44,46.47c-2.14,4.9-4.35,10.51-4.02,15.63
		c1.33,20.8-3.88,40.66-7.9,60.64c-1.71,8.48-20.73,43.76-25.94,48.94c-9.98,9.91-19.79,19.97-29.71,29.94
		c-11.26,11.32-23.42,21.89-33.55,34.13c-8.05,9.72-17.12,17.42-27.37,24.52c-6.99,4.84-12.69,11.79-18.22,18.43
		c-7.67,9.21-12.86,20.21-23.51,27.26c-7.57,5.01-14.17,12.01-19.96,19.13c-16.53,20.32-32.64,40.99-48.49,61.84
		c-11.33,14.89-22.8,29.78-32.74,45.59c-13.86,22.05-26.85,44.71-39.09,67.7c-2.97,5.59-3.05,13.84-1.64,20.26
		c1.06,4.87,12.13,8.06,18.16,7.37c7.39-0.84,12.92-3.11,17.62-9.01c8.67-10.9,17.63-21.61,27.1-31.8
		c8.88-9.56,19.02-17.95,27.81-27.58c9.94-10.9,17.74-24,28.66-33.67c22.29-19.75,45.53-38.53,69.35-56.41
		c19.43-14.58,38.57-20.82,54.62-39.93c0.32-0.38,4.75-4.27,6.38-4.61c-1.25,4.89-2.68,9.09-3.36,13.41
		c-3.65,22.97-5.74,46.23-10.56,68.98c-6.19,29.2-8.72,38.54-13.19,86.53c-2.54,27.24-3.07,55.34-2.72,82.66
		c0.08,5.89-2.41,17.45,0.38,18.42c2.79,0.97,19.59-3.71,21.51-4.36c1.92-0.65,5.66-4.14,5.63-8.44
		c-0.12-17.76-0.37-35.53,0.03-53.29c0.7-30.99,2.1-61.05,7.08-91.65c2.33-14.3,5.4-23.43,6.99-34.34
		c3.64-24.89,7.92-49.68,11.99-74.5c1.03-6.27,0.22-14.4,3.86-18.35c6.29-6.83,16.42-12.37,25.08-18.19
		c0.27,2.34-9.77,56.69-13.07,82.71c-2.56,20.23-3.13,40.72-4.46,61.1c-1.53,23.43-2.7,46.89-4.43,70.3
		c-1.54,20.81-4.31,41.55-5.15,62.38c-0.33,8.05,2.34,24.67,5.12,25.44c2.77,0.77,9.27-4.68,12.34-7.45
		c2.3-2.07,4.36-5.48,4.68-8.49c2.49-23.36,4.74-46.76,6.67-70.17c2.18-26.51,3.88-53.06,5.91-79.59
		c1.66-21.65,2.72-43.38,5.49-64.89c2.89-22.34,9.67-44.35,10.68-66.7c0.77-17.07,9.1-27.05,20.36-36.76
		c2.2-1.9,9.41-7.48,9.99-7.16c-1.09,7.03-3.21,17.47-3.99,24.53c-1.48,13.5-2.4,27.06-3.95,40.56
		c-4.39,38.45-9.85,76.8-13.19,115.33c-2.27,26.24-1.73,52.72-2.38,79.1c-0.64,25.85-2.49,49.09-3.32,74.93
		c-0.19,5.98-3.52,21.17-1.36,22.08c2.16,0.91,10.05-4.65,14.32-6.55c4.38-1.95,6.27-4.78,5.94-10.03
		c-0.43-6.82,0.35-13.74,0.97-20.58c1.57-17.2,3.81-34.34,4.92-51.56c1.12-17.56,0.75-35.21,1.86-52.77
		c1.39-22.07,3.61-44.09,5.49-66.13c2.19-25.71,4.17-51.24,11.63-76.39c5.63-18.99,7.13-39.26,9.88-59.03
		c1.4-10.08,1.32-20.36,2.36-30.51c0.26-2.54,1.59-6,3.55-7.16c16.73-9.97,33.38-20.18,50.74-28.95c11.88-6,12.37-5.02,15.19,7.5
		c0.11,0.46,0.27,0.91,0.39,1.37c6.67,24.4,13.42,48.78,19.98,73.22c6.87,25.61,15.1,50.99,19.93,77
		c6.45,34.78,18.84,67.45,31.09,100.26c10.53,28.2,21.87,56.1,32.72,84.19c2.07,5.37,3.38,13.42,5.41,13.75s8.61-5.13,7.67-11.56
		c-2.36-16.18-3.76-32.58-7.34-48.49c-3.58-15.92-9.04-31.46-14.2-46.99c-12.06-36.27-25.56-72.1-36.38-108.73
		c-10.34-35.02-17.41-71-27.13-106.22c-4.89-17.74-8.52-35.42-8.91-53.76c-0.03-1.53,0.31-3.95,1.29-4.5
		c7.5-4.14,14.13-10.56,23.5-10.31c2.61,11.23,4.76,22.03,7.67,32.62c6.55,23.88,13.25,47.72,20.33,71.44
		c4.84,16.22,10.72,32.13,15.59,48.34c4.55,15.11,7.68,30.68,12.74,45.61c5.38,15.85,12.72,31.02,18.44,46.76
		c8,22.01,14.47,44.61,23.15,66.34c7.14,17.88,21.43,50.03,25.26,52.94c3.82,2.91,13.44-16.04,8.41-27.17
		c-1.65-3.66-2.8-7.54-4.12-11.35c-5.83-16.79-11.24-33.73-17.55-50.34c-7.73-20.35-17.48-40.02-24.1-60.7
		c-13.16-41.15-25-82.72-36.93-124.26c-7.59-26.43-14.21-53.14-21.55-79.64c-1.87-6.74-4.85-13.17-7.27-19.62
		c7.6-4.53,9.55-3.89,11.78,3.44c7.89,25.89,15.39,51.91,23.74,77.65c8.04,24.81,17.08,49.29,25.42,74
		c6.44,19.08,11.4,38.73,18.91,57.36c12.16,30.17,25.78,59.75,38.98,89.49c9.43,21.25,17.21,38.16,26.94,59.28
		c0.79,1.71,4.02,8.36,5.93,8.58c1.92,0.22,3.4-4.15,5.05-7.18c4.84-8.85,4.77-12.22,0.94-21.56
		c-11.16-27.21-20.59-55.14-32.02-82.23c-6.25-14.81-55.99-124.06-61.54-168.25c-1.49-11.91-2.74-25.16-8.78-34.9
		c-12.55-20.25-17.34-42.37-22.07-64.87c-0.92-4.36,0.32-6.89,4.49-9.04c13.31-6.85,26.38-14.18,39.53-21.35
		c42.31-23.08,84.17-47.02,127.04-69c37.1-19.02,75.41-35.68,112.99-53.76c6.76-3.25,12.7-8.27,18.81-12.76
		C921.48,396.46,924.68,391.69,920.92,390.51z M309.11,708.11c-28.49,21.46-57.17,42.74-84.64,65.46
		c-14.95,12.37-27.62,27.49-41.33,41.37c-1.83,1.86-4.4,4.66-5.8,4.66c-1.4,0-2.5-4.38-0.26-6.78c9.07-9.72,17.71-19.96,27.63-28.74
		c35.45-31.37,71.35-62.23,107.12-93.23c1.72-1.49,3.84-2.5,7.25-4.68C317.04,695.39,316.34,702.66,309.11,708.11z M320.64,654.21
		c-50.84,41.31-98.16,86.5-144.15,133.1c-4.51,4.56-8.73,9.41-13.19,14.02c-1.01,1.05-2.49,1.64-3.75,2.45
		c-0.92,0-2.05-0.82-2.05-1.74c0-0.92,10.55-15.18,16.92-21.69c34.64-35.34,69.45-70.53,104.62-105.34
		c10.96-10.85,23.4-20.19,34.84-30.58c5.9-5.36,11.09-11.49,17.42-18.14C333.73,639.23,329.53,646.99,320.64,654.21z M351.82,679.42
		c-4.76-14.23,1.64-24.92,17.68-33.16C372.01,663.59,367.38,672.27,351.82,679.42z M361.44,626.92
		c-0.11-16.84,0.19-32.43,17.05-41.01C384.3,603.11,380.08,613.83,361.44,626.92z M529.06,279.65
		c6.32,25.05,22.69,115.13,29.03,140.18c1.55,6.12,1.03,10.84-7.95,12.09c-5.37-30.94-10.73-61.8-16.09-92.65
		c-0.87-4.88-7.96-53.63-6.98-53.87C526.98,280.93,528.53,277.57,529.06,279.65z M517.48,192.69c0,0,10.63,50.25,9.52,52.87
		c-1.29,3.04-4.35,13.96-6.24,13.12c-1.89-0.85-4.52-62.77-4.52-62.77L517.48,192.69z M482.63,269.79
		c5.91-15.72,12.47-31.2,18.8-46.76c0.42-1.03,1.98-9.06,2.63-9.02c1.21,8.84,3.5,23.85,4.46,32.72
		c1.13,10.34,2.68,20.75,2.46,31.09c-0.12,5.79-3.26,11.58-5.4,17.24c-4.85,12.81-9.92,25.54-15.54,39.94
		c-1.9-2.02-2.62-3.83-2.89-5.28c-2.69-14.43-5.74-28.82-7.53-43.36C478.97,281.01,480.67,275,482.63,269.79z M474.98,513.24
		c4.87-3.37,9.33-7.34,14.01-10.99c4.83-3.77,7.38-3.22,8.49,2.54c1.34,6.97,1.99,14.1,2.59,21.18c0.14,1.64-0.62,4.16-1.83,4.99
		c-11.91,8.07-24,15.88-36.07,23.73c-0.52,0.34-1.32,0.26-3.96,0.72C461.75,539.7,460.19,523.49,474.98,513.24z M470.45,492.16
		c3.89-22.59,11.11-61.63,11.15-64.75c0.04-3.13,0.29-5.32,1.18-5.41c2,6.73,5.56,18.57,7.46,25.33c0.64,2.28,0.94,4.67,1.23,7.03
		C494.01,474.36,490.84,480.44,470.45,492.16z M399.22,648.92c-2.64-25.93,5.33-37.93,24.6-45.91
		C426.61,621.73,418.5,637.11,399.22,648.92z M435.88,564.92c-0.35,1.49-1.25,3.22-2.44,4.09c-7.99,5.81-16.13,11.42-26.03,18.37
		c0.64-6.45,0.3-11.47,1.75-15.9c2.65-8.08,6.19-15.89,9.75-23.62c0.89-1.93,3.06-3.95,5.06-4.55c5.58-1.66,11.37-2.59,17.64-3.93
		C439.71,547.93,437.9,556.45,435.88,564.92z M447.8,502.3c-0.9,3.16-3.88,6.3-6.73,8.23c-5.43,3.68-11.45,6.48-17.88,10.01
		c4.28-23.2,7.76-45.52,12.64-67.52c4.9-22.12,11.41-43.87,16.81-65.88c5.38-21.94,14.61-63.69,15.37-66
		c0.77-2.31,0.67-4.87,1.38-4.75c2.44,17.46,8.48,39.74,2.58,57.79c-2.54,7.77-2.33,16.42-3.7,24.61c-3,17.95-7.81,35.76-8.86,53.81
		C458.38,470.11,452.47,485.96,447.8,502.3z M498.38,591.73c-13.71,8.95-27.13,18.36-40.68,27.55c-1.9,1.29-3.84,2.5-5.36,3.49
		c0-11.46-0.18-22.26,0.15-33.05c0.07-2.29,1.4-5.31,3.17-6.65c12.48-9.47,25.2-18.62,37.9-27.8c4.71-3.4,7.79-3.96,11.64,2.54
		C513.16,571.31,511.21,583.36,498.38,591.73z M509.72,462.57c-0.88-6.7-1.49-12.45-2.41-18.14c-3.79-23.39-7.1-46.88-11.77-70.09
		c-2.28-11.35,1.24-21.17,4.52-31.17c2.57-7.84,6.65-15.19,10.22-22.68c0.65-1.35,1.85-11.07,4.47-12.58
		c2.08,9.89,3.96,26.57,5.34,35.32c1.4,8.89,3.29,17.99,2.7,26.85c-1.35,20.42,4.33,39.49,9.44,58.69
		c3.92,14.74,4.29,14.66-7.64,23.33C520.07,455.38,515.46,458.54,509.72,462.57z M542.52,464.93c2.03,9.54,4.05,18.86,5.95,28.21
		c0.16,0.8-0.21,2.02-0.78,2.6c-8.46,8.6-17.84,15.9-29.67,21.1C512.78,486.14,518.52,473.72,542.52,464.93z M558.43,560.97
		c-9.69,4.22-19.65,7.8-30.13,11.84c-1.39-8.78-3.08-18.7-4.41-28.67c-0.15-1.15,1.32-2.99,2.52-3.79
		c8.42-5.6,16.97-11.01,26.41-17.08c1.19,2.5,3.13,5.41,3.99,8.6c2.02,7.53,3.83,15.15,5.01,22.84
		C562.11,556.66,560.21,560.2,558.43,560.97z M566.79,485.09c-0.72,0-6.01-3.49-6.44-5.73c-1.19-6.23-1.78-22.59-1.17-24.04
		c0.54-1.3,2.2-3.26,3.15-3.26c0.95,0,2.32,1.82,2.6,2.95c1.92,7.81,3.91,15.62,5.13,23.55
		C570.37,480.53,567.51,485.09,566.79,485.09z M582.52,545.5c-2.68,0.02-4.3-3.37-4.88-5.64c-2.69-10.55-4.86-21.24-7-31.93
		c-0.31-1.55,4.31-4.71,4.65-3.96c4.93,11.17,9.63,22.44,15.13,35.46C589.05,542.79,585.2,545.48,582.52,545.5z"/>
</g>
</svg>
